<svg width="24" height="24" viewBox="0 0 24 24" fill="none" xmlns="http://www.w3.org/2000/svg">
  <path d="M10 8.5C10 9.05228 9.55228 9.5 9 9.5C8.44772 9.5 8 9.05228 8 8.5C8 7.94772 8.44772 7.5 9 7.5C9.55228 7.5 10 7.94772 10 8.5Z" fill="#3b82f6"/>
  <path d="M16 8.5C16 9.05228 15.5523 9.5 15 9.5C14.4477 9.5 14 9.05228 14 8.5C14 7.94772 14.4477 7.5 15 7.5C15.5523 7.5 16 7.94772 16 8.5Z" fill="#3b82f6"/>
  <path d="M10 15.5C10 16.0523 9.55228 16.5 9 16.5C8.44772 16.5 8 16.0523 8 15.5C8 14.9477 8.44772 14.5 9 14.5C9.55228 14.5 10 14.9477 10 15.5Z" fill="#3b82f6"/>
  <path d="M16 15.5C16 16.0523 15.5523 16.5 15 16.5C14.4477 16.5 14 16.0523 14 15.5C14 14.9477 14.4477 14.5 15 14.5C15.5523 14.5 16 14.9477 16 15.5Z" fill="#3b82f6"/>
  <rect x="4" y="3" width="16" height="18" rx="2" stroke="#3b82f6" stroke-width="2"/>
  <line x1="9" y1="4" x2="9" y2="20" stroke="#3b82f6" stroke-width="2"/>
  <line x1="15" y1="4" x2="15" y2="20" stroke="#3b82f6" stroke-width="2"/>
  <line x1="4" y1="12" x2="20" y2="12" stroke="#3b82f6" stroke-width="2"/>
</svg> 