<svg width="24" height="24" viewBox="0 0 24 24" fill="none" xmlns="http://www.w3.org/2000/svg">
  <path d="M4 6H12M12 6H20M12 6V18M4 12H20M4 18H12M12 18H20" stroke="#3b82f6" stroke-width="2" stroke-linecap="round"/>
  <path d="M7 6C7 6.55228 6.55228 7 6 7C5.44772 7 5 6.55228 5 6C5 5.44772 5.44772 5 6 5C6.55228 5 7 5.44772 7 6Z" fill="#3b82f6"/>
  <path d="M19 6C19 6.55228 18.5523 7 18 7C17.4477 7 17 6.55228 17 6C17 5.44772 17.4477 5 18 5C18.5523 5 19 5.44772 19 6Z" fill="#3b82f6"/>
  <path d="M19 12C19 12.5523 18.5523 13 18 13C17.4477 13 17 12.5523 17 12C17 11.4477 17.4477 11 18 11C18.5523 11 19 11.4477 19 12Z" fill="#3b82f6"/>
  <path d="M7 18C7 18.5523 6.55228 19 6 19C5.44772 19 5 18.5523 5 18C5 17.4477 5.44772 17 6 17C6.55228 17 7 17.4477 7 18Z" fill="#3b82f6"/>
</svg> 